<svg
            xmlns="http://www.w3.org/2000/svg"
            viewBox="0 0 182 186"
            className="w-[220px] sm:w-[220px] md:w-[260px] lg:w-[300px] h-auto"
            fill="none"
          >
            {" "}
            <g clipPath="url(#clip0_3039_24342)">
              {" "}
              <path
                d="M67.4009 176.307L9.61955 118.526C-3.20961 105.697 -3.20961 84.6433 9.61955 71.7138L67.4009 13.9325C80.2301 1.10332 101.284 1.10332 114.213 13.9325L171.995 71.7138C184.824 84.543 184.824 105.597 171.995 118.526L114.213 176.307C101.284 189.237 80.3304 189.237 67.4009 176.307Z"
                fill="#D9F99D"
              />{" "}
              <path
                d="M97.1534 135.613C96.5243 135.54 95.886 135.468 95.2568 135.404C95.3207 136.398 96.3328 147.804 108.104 149.518L108.378 147.658C98.667 146.245 97.3266 137.528 97.1534 135.613Z"
                fill="#38BDF8"
              />{" "}
              <path
                d="M87.862 168.092L86.8772 166.642C91.2083 163.706 93.2599 159.366 92.9863 153.731C92.7766 149.436 91.2265 145.962 91.2083 145.926L92.804 145.197C92.8678 145.352 99.4602 160.223 87.862 168.092Z"
                fill="white"
              />{" "}
              <path
                d="M101.676 168.092C103.166 168.092 104.375 166.884 104.375 165.393C104.375 163.903 103.166 162.694 101.676 162.694C100.185 162.694 98.9768 163.903 98.9768 165.393C98.9768 166.884 100.185 168.092 101.676 168.092Z"
                fill="white"
              />{" "}
              <path
                d="M81.3699 154.916C82.8604 154.916 84.0688 153.708 84.0688 152.217C84.0688 150.727 82.8604 149.518 81.3699 149.518C79.8793 149.518 78.6709 150.727 78.6709 152.217C78.6709 153.708 79.8793 154.916 81.3699 154.916Z"
                fill="#84CC16"
              />{" "}
              <path
                d="M79.724 113.756C81.5821 113.258 82.6349 111.163 82.0756 109.076C81.5163 106.99 79.5566 105.702 77.6986 106.2C75.8405 106.698 74.7876 108.793 75.347 110.88C75.9063 112.967 77.8659 114.254 79.724 113.756Z"
                fill="#94A3B8"
              />{" "}
              <path
                d="M104.362 107.156C106.221 106.658 107.273 104.562 106.714 102.476C106.155 100.389 104.195 99.1011 102.337 99.5991C100.479 100.097 99.4261 102.193 99.9854 104.279C100.545 106.366 102.504 107.654 104.362 107.156Z"
                fill="#94A3B8"
              />{" "}
              <path
                d="M49.5295 63.0152L88.8011 50.6693C98.1654 47.7241 108.15 52.9306 111.095 62.2948L125.073 106.736L51.8819 129.75L37.9039 85.3089C34.9587 75.9446 40.1652 65.9603 49.5295 63.0152Z"
                fill="#22C55E"
              />{" "}
              <path
                d="M64.4193 58.3376L100.235 47.0767C110.557 43.8307 121.553 49.566 124.799 59.8876L138.23 102.597L65.0394 125.611L51.6084 82.9017C48.3624 72.58 54.0976 61.5836 64.4193 58.3376Z"
                fill="#16A34A"
              />{" "}
              <path
                d="M89.5282 110.008C91.3863 109.51 92.4391 107.415 91.8798 105.328C91.3205 103.241 89.3608 101.954 87.5028 102.452C85.6447 102.95 84.5918 105.045 85.1512 107.132C85.7105 109.218 87.6702 110.506 89.5282 110.008Z"
                fill="#1E3A8A"
              />{" "}
              <path
                d="M114.164 103.399C116.022 102.901 117.075 100.805 116.516 98.7186C115.957 96.6319 113.997 95.344 112.139 95.8421C110.281 96.3401 109.228 98.4354 109.787 100.522C110.346 102.609 112.306 103.897 114.164 103.399Z"
                fill="#1E3A8A"
              />{" "}
              <path
                d="M53.1403 14.6528C53.7968 14.1057 74.5222 0 74.5222 0L78.8715 21.6555L90.8071 14.3975L82.227 67.6471L75.1513 37.3204L60.2159 45.1254L53.1403 14.6528Z"
                fill="white"
              />{" "}
              <path
                d="M103.472 4.32196L121.088 10.0755L95.6489 38.9342L103.472 4.32196Z"
                fill="white"
              />{" "}
            </g>{" "}
            <defs>
              {" "}
              <clipPath id="clip0_3039_24342">
                {" "}
                <rect width="181.605" height="186" fill="white" />{" "}
              </clipPath>{" "}
            </defs>{" "}
          </svg>